<svg width="24" height="24" viewBox="0 0 24 24" fill="none" xmlns="http://www.w3.org/2000/svg">
<g id="Icon=Hour">
<path id="Vector" d="M12 22C6.5 22 2 17.5 2 12C2 6.5 6.5 2 12 2C17.5 2 22 6.5 22 12C22 17.5 17.5 22 12 22ZM12 4C7.6 4 4 7.6 4 12C4 16.4 7.6 20 12 20C16.4 20 20 16.4 20 12C20 7.6 16.4 4 12 4Z" fill="#3F135C"/>
<path id="Vector_2" d="M16.9 13.0003H12C11.4 13.0003 11 12.6003 11 12.0003V7.10035C11 6.50034 11.4 6.10034 12 6.10034C12.6 6.10034 13 6.50034 13 7.10035V11.0003H16.9C17.5 11.0003 17.9 11.4003 17.9 12.0003C17.9 12.6003 17.5 13.0003 16.9 13.0003Z" fill="#3F135C"/>
</g>
</svg>
