<svg width="24" height="24" viewBox="0 0 24 24" fill="none" xmlns="http://www.w3.org/2000/svg">
<path d="M15.5994 15.7C15.1994 15.7 14.8994 15.5 14.6994 15.2L13.4994 13.1C12.9994 12 11.9994 11 10.8994 10.4L8.79944 9.2C8.49944 9.1 8.29944 8.7 8.29944 8.4C8.29944 8 8.49944 7.7 8.79944 7.5L10.8994 6.3C11.9994 5.7 12.9994 4.8 13.5994 3.6L14.7994 1.5C14.8994 1.2 15.2994 1 15.5994 1C15.9994 1 16.2994 1.2 16.4994 1.5L17.6994 3.6C18.2994 4.7 19.2994 5.7 20.3994 6.3L22.4994 7.5C22.7994 7.7 22.9994 8 22.9994 8.4C22.9994 8.8 22.7994 9.1 22.4994 9.3L20.3994 10.5C19.2994 11.1 18.2994 12.1 17.6994 13.2L16.4994 15.3C16.2994 15.5 15.9994 15.7 15.5994 15.7ZM11.3994 8.4L11.8994 8.7C13.3994 9.5 14.5994 10.7 15.3994 12.2L15.6994 12.7L15.9994 12.2C16.7994 10.7 17.9994 9.5 19.4994 8.7L19.9994 8.4L19.4994 8.1C17.9994 7.3 16.7994 6.1 15.9994 4.6L15.6994 4.1L15.3994 4.6C14.5994 6.1 13.3994 7.3 11.8994 8.1L11.3994 8.4Z" fill="#3F135C"/>
<path d="M6.5 23C6.1 23 5.8 22.8 5.6 22.5L5 21.3C4.5 20.3 3.7 19.5 2.7 19L1.5 18.4C1.2 18.2 1 17.8 1 17.5C1 17.1 1.2 16.8 1.5 16.6L2.7 16C3.7 15.5 4.5 14.7 5 13.7L5.6 12.5C6 11.9 7 11.9 7.4 12.5L8 13.7C8.5 14.7 9.3 15.5 10.3 16L11.5 16.6C11.8 16.8 12 17.1 12 17.5C12 17.9 11.8 18.2 11.5 18.4L10.4 19C9.4 19.5 8.6 20.3 8.1 21.3L7.5 22.5C7.2 22.8 6.9 23 6.5 23ZM4.1 17.5C5.1 18.1 6 19 6.6 20C7.2 19 8.1 18.1 9.1 17.5C8 16.8 7.2 16 6.5 15C5.9 16 5.1 16.8 4.1 17.5Z" fill="#3F135C"/>
</svg>
