<svg width="24" height="24" viewBox="0 0 24 24" fill="none" xmlns="http://www.w3.org/2000/svg">
<path fill-rule="evenodd" clip-rule="evenodd" d="M3.57495 1.78507C4.86403 0.500097 7.0254 0.859428 7.938 2.37559L7.9444 2.38614L10.0481 5.98116C10.6675 7.06187 10.5113 8.45113 9.58707 9.3724L9.23813 9.7202C10.4735 11.6579 12.3503 13.575 14.2473 14.7248L14.5941 14.4175C15.5184 13.5164 16.898 13.3683 17.9731 13.9807L17.9809 13.9851L21.5408 16.0553C22.4222 16.4771 22.8861 17.2924 22.9811 18.1063C23.0759 18.9196 22.8156 19.8023 22.1826 20.4332L20.9831 21.629C19.7376 22.8705 17.7101 23.4199 15.9799 22.636C13.7025 21.7053 10.2867 19.9491 7.17367 16.8459C4.05248 13.7347 2.29312 10.2235 1.36877 8.07567C0.580207 6.3562 1.1236 4.34015 2.36039 3.0955L3.54727 1.8138C3.55631 1.80404 3.56553 1.79446 3.57495 1.78507ZM4.99956 3.18371L3.81678 4.46098C3.80775 4.47074 3.79851 4.48031 3.78909 4.48971C3.04036 5.23605 2.79125 6.39219 3.19015 7.25373C3.194 7.26207 3.19773 7.2704 3.20134 7.2788C4.07772 9.3172 5.71644 12.5749 8.5874 15.4367C11.4635 18.3037 14.635 19.9343 16.7561 20.7993C16.7697 20.8048 16.7831 20.8107 16.7965 20.8168C17.6608 21.2145 18.8206 20.9661 19.5693 20.2198L20.7689 19.024C20.9356 18.8578 21.0252 18.5945 20.9951 18.3365C20.9669 18.0949 20.8471 17.9295 20.6623 17.8457C20.6315 17.8317 20.6014 17.8162 20.5722 17.7993L16.9781 15.7093C16.6631 15.5317 16.2593 15.5759 15.9848 15.8495C15.9709 15.8633 15.9567 15.8767 15.9421 15.8896L15.0424 16.6868C14.7325 16.9613 14.2849 17.0168 13.9171 16.8261C11.2199 15.4281 8.5882 12.6858 7.10834 10.0515C6.8896 9.6622 6.95713 9.17547 7.27367 8.86L8.17334 7.9632C8.4478 7.6896 8.49207 7.287 8.31393 6.97307L6.22104 3.39667C5.93617 2.92942 5.31277 2.88679 4.99956 3.18371Z" fill="#3F135C"/>
<path fill-rule="evenodd" clip-rule="evenodd" d="M16.2554 7.7446C15.754 7.2432 14.9795 7.06347 14.4319 7.246C13.862 7.43593 13.2461 7.12793 13.0561 6.55811C12.8661 5.98827 13.1741 5.37233 13.744 5.18237C15.1541 4.71235 16.7723 5.18519 17.7935 6.20645C18.8148 7.22773 19.2877 8.84593 18.8176 10.256C18.6277 10.8259 18.0117 11.1339 17.4419 10.9439C16.872 10.7539 16.5641 10.138 16.754 9.56813C16.9365 9.02047 16.7568 8.246 16.2554 7.7446Z" fill="#3F135C"/>
<path fill-rule="evenodd" clip-rule="evenodd" d="M18.9493 5.05067C17.1752 3.27653 14.5963 2.65215 12.2855 3.27429C11.7415 3.42074 11.1818 3.09848 11.0353 2.5545C10.8889 2.01052 11.2111 1.45081 11.7551 1.30435C14.7485 0.498424 18.0859 1.3021 20.3919 3.60812C22.6979 5.91414 23.5016 9.25147 22.6957 12.2449C22.5492 12.7889 21.9895 13.1111 21.4455 12.9647C20.9015 12.8182 20.5793 12.2585 20.7257 11.7145C21.3479 9.40374 20.7235 6.8248 18.9493 5.05067Z" fill="#3F135C"/>
</svg>
