<svg width="1024" height="1024" viewBox="0 0 1024 1024" fill="none" xmlns="http://www.w3.org/2000/svg">
<g clip-path="url(#clip0_1738_4959)">
<path fill-rule="evenodd" clip-rule="evenodd" d="M750.154 667.9C739.479 657.479 716.858 662.054 702.625 662.054L582.912 666.629C597.146 655.954 537.417 505.996 492.683 406.871L489.633 396.196C513.754 384.389 540.3 378.384 567.154 378.658C567.154 409.667 628.917 547.171 650.521 595.208C650.521 597.242 673.904 653.667 675.937 655.7C677.63 657.272 679.855 658.146 682.165 658.146C684.475 658.146 686.699 657.272 688.392 655.7C693.475 650.617 670.092 584.533 670.854 586.567C594.604 388.317 594.604 355.529 576.304 352.733C550.887 349.175 505.392 370.525 483.533 381.963C461.675 393.4 478.45 413.479 487.092 446.267C489.125 452.113 488.362 448.554 479.975 448.554C466.643 449.005 453.376 450.621 440.325 453.383C434.987 427.967 424.821 424.408 409.571 422.629C390.505 421.231 371.347 421.742 352.383 424.154C345.787 424.047 339.206 424.816 332.812 426.442C336.625 393.654 332.812 378.913 304.6 368.492C274.697 357.143 241.85 356.158 211.321 365.696C195.562 371.288 188.192 379.675 185.904 404.583C184.633 418.054 187.175 662.308 196.071 687.471C182.142 690.192 168.392 693.757 154.896 698.146C134.562 705.263 156.675 748.979 167.096 769.567C181.583 797.779 167.096 782.275 226.571 782.021C218.217 798.808 214.197 817.42 214.879 836.158C217.421 861.575 238.262 881.4 282.996 870.725C315.021 861.067 303.329 822.688 301.804 800.067C301.804 797.017 299.262 785.325 297.992 780.242C335.354 778.463 370.429 776.429 422.025 771.346C449.221 768.55 477.179 771.346 504.629 769.821C526.996 769.821 554.192 763.721 589.775 759.654C588.248 782.419 588.248 805.26 589.775 828.025C588.25 844.038 594.35 854.967 615.192 861.575C625.188 865.823 636.281 866.757 646.847 864.242C657.413 861.726 666.895 855.893 673.904 847.596C683.562 831.838 677.462 777.446 673.904 759.4C689.55 765.758 707.059 765.758 722.704 759.4C736.466 748.955 745.589 733.536 748.121 716.446C748.629 707.042 764.133 681.879 750.154 667.9ZM330.271 444.742C348.487 442.26 366.955 442.26 385.171 444.742C391.858 445.305 398.488 446.41 404.996 448.046C407.283 448.046 413.129 448.046 412.112 450.079C405.504 460.5 425.583 663.833 425.583 663.833C426.981 664.809 428.607 665.407 430.303 665.571C432 665.735 433.71 665.459 435.268 664.769C436.827 664.079 438.181 662.999 439.2 661.633C440.22 660.267 440.87 658.661 441.087 656.971C444.9 634.858 444.137 502.946 443.629 492.271C441.596 464.821 439.562 466.854 475.4 468.888C477.905 469.126 480.377 469.637 482.771 470.413C484.961 479.563 485.901 488.968 485.567 498.371C490.65 535.479 485.567 553.525 493.954 610.204L498.275 646.296C500.308 654.683 495.987 667.138 506.662 666.121C519.117 669.679 519.879 661.038 517.592 540.817C522.421 554.542 528.012 567.758 534.112 580.975C574.017 669.679 569.442 665.104 571.983 666.629C487.159 664.475 402.283 667.446 317.817 675.525C317.562 672.221 329 454.4 330.271 444.742ZM213.608 413.988C218.437 358.833 302.312 402.042 304.6 401.025C305.894 416.798 305.296 432.669 302.821 448.3C301.296 471.175 298.5 582.246 302.821 642.738C302.821 654.938 300.533 665.613 300.279 676.796C270.485 677.451 240.767 680.083 211.321 684.675C207.762 669.933 212.592 472.954 213.608 413.988ZM279.692 830.567C279.692 833.108 278.167 842.004 275.625 842.513C267.275 844.549 258.558 844.549 250.208 842.513C224.792 834.888 244.108 787.867 238.008 780.75C285.283 780.75 278.929 778.463 279.692 780.75C275.117 784.817 284.012 790.917 279.692 830.567ZM651.029 830.567C648.996 835.396 622.817 835.396 615.192 832.092C615.192 829.55 611.887 814.808 603.754 757.621C620.674 756.325 637.668 756.325 654.587 757.621C651.759 781.998 650.57 806.538 651.029 831.075V830.567ZM718.129 708.313C713.3 728.138 711.267 738.304 692.712 733.729C638.575 720.767 576.304 733.729 522.421 742.625C489.887 747.708 453.033 744.15 418.975 748.217C384.917 752.283 344.758 756.604 307.65 759.4C301.042 759.4 183.617 767.788 180.567 761.942C177.517 756.096 176.246 718.988 165.825 712.633C230.637 693.571 299.008 700.433 369.158 695.604C447.696 690.267 525.725 695.604 591.046 695.604C678.225 695.604 679.75 689.504 718.129 693.825C718.383 700.179 718.383 707.042 718.129 708.821V708.313Z" fill="#558154"/>
<path fill-rule="evenodd" clip-rule="evenodd" d="M265.204 573.604H254.529C251.169 573.826 247.844 574.423 244.617 575.383C236.738 577.417 230.129 580.721 221.996 582.754C220.018 582.82 218.143 583.652 216.768 585.075C215.392 586.498 214.624 588.4 214.625 590.379C214.616 592.343 215.341 594.24 216.657 595.697C217.974 597.155 219.787 598.068 221.742 598.258C230.971 601.177 240.54 602.886 250.208 603.342C255.699 603.435 261.176 602.75 266.475 601.308C274.354 599.783 281.725 596.733 289.604 595.462C290.706 595.531 291.811 595.382 292.855 595.023C293.899 594.664 294.862 594.102 295.688 593.37C296.515 592.638 297.189 591.75 297.671 590.757C298.154 589.764 298.435 588.685 298.5 587.583C298.641 585.331 297.896 583.113 296.424 581.404C294.951 579.694 292.869 578.628 290.621 578.433C282.31 576.069 273.804 574.453 265.204 573.604Z" fill="#558154"/>
<path fill-rule="evenodd" clip-rule="evenodd" d="M379.833 573.604H368.65C365.037 573.804 361.457 574.4 357.975 575.383C349.333 577.417 342.217 580.721 332.558 582.754C330.743 583.084 329.101 584.041 327.919 585.458C326.736 586.874 326.089 588.661 326.089 590.506C326.089 592.351 326.736 594.138 327.919 595.555C329.101 596.971 330.743 597.928 332.558 598.258C342.572 601.164 352.896 602.871 363.313 603.342C369.223 603.448 375.121 602.764 380.85 601.308C389.238 599.783 397.117 596.733 406.267 595.462C408.336 595.109 410.214 594.035 411.568 592.43C412.922 590.825 413.664 588.793 413.664 586.694C413.664 584.594 412.922 582.562 411.568 580.957C410.214 579.353 408.336 578.278 406.267 577.925C397.588 575.765 388.748 574.32 379.833 573.604Z" fill="#558154"/>
<path fill-rule="evenodd" clip-rule="evenodd" d="M590.029 527.346C587.328 528.051 584.692 528.986 582.15 530.142C579.637 531.336 577.252 532.784 575.033 534.462C569.696 538.529 565.883 543.358 560.292 547.425C558.727 548.289 557.545 549.709 556.98 551.404C556.415 553.1 556.508 554.945 557.242 556.575C558.512 560.642 562.325 563.183 565.121 562.167C573.095 562.414 581.062 561.471 588.758 559.371C592.847 557.903 596.7 555.849 600.196 553.271C605.787 549.458 610.362 544.883 615.954 541.325C617.772 540.442 619.182 538.895 619.891 537.003C620.601 535.111 620.556 533.018 619.767 531.158C619.336 529.134 618.15 527.349 616.45 526.169C614.75 524.988 612.664 524.5 610.617 524.804C603.673 524.755 596.752 525.609 590.029 527.346Z" fill="#558154"/>
<g clip-path="url(#clip1_1738_4959)">
<mask id="mask0_1738_4959" style="mask-type:alpha" maskUnits="userSpaceOnUse" x="348" y="103" width="607" height="505">
<path d="M348 103H955V608L695 560.5L681 527C681 527 538.785 406.203 428.5 396C398.752 393.248 365 396 365 396L348 103Z" fill="#F1E4DB"/>
</mask>
<g mask="url(#mask0_1738_4959)">
<path fill-rule="evenodd" clip-rule="evenodd" d="M717.662 404.363C709.408 379.061 694.959 356.224 675.628 337.93C656.297 319.637 632.698 306.468 606.98 299.622C581.218 291.861 554.29 288.705 527.432 290.298C397.905 301.788 294.743 495.124 446.676 580.287C517.888 621.049 594.702 645.414 659.452 595.616C686.548 572.733 706.457 542.51 716.784 508.581C727.11 474.651 727.415 438.461 717.662 404.363ZM644.93 574.728C588.695 614.233 523.518 588.22 464.606 554.375C453.583 548.465 443.36 541.175 434.182 532.679C356.922 459.794 434.927 325.364 529.867 313.326C549.494 310.853 651.732 303.686 693.114 402.333C700.76 419.142 704.138 437.579 702.948 456.008C702.452 478.818 697.007 501.247 686.989 521.746C676.972 542.244 662.621 560.321 644.93 574.728Z" fill="#558154"/>
<path fill-rule="evenodd" clip-rule="evenodd" d="M608.461 254.134C610.944 254.76 613.572 254.395 615.79 253.116C618.008 251.836 619.64 249.744 620.34 247.281C626.208 235.735 631.359 223.838 635.762 211.658C640.561 191.706 641.821 171.066 639.486 150.678C638.797 148.733 637.476 147.074 635.734 145.965C633.992 144.857 631.93 144.363 629.875 144.563C627.821 144.762 625.892 145.644 624.396 147.066C622.9 148.489 621.923 150.371 621.621 152.413C618.676 160.57 587.229 248.085 608.461 254.134Z" fill="#558154"/>
<path fill-rule="evenodd" clip-rule="evenodd" d="M859.389 540.594C846.685 539.456 834.35 540.285 821.441 538.779C819.138 538.54 816.825 539.121 814.908 540.418C812.991 541.716 811.592 543.647 810.958 545.874C810.324 548.1 810.494 550.479 811.44 552.592C812.385 554.705 814.045 556.417 816.128 557.428C827.83 563.115 839.943 567.914 852.364 571.784C868.145 576.28 913.181 576.082 915.796 566.901C918.412 557.72 868.979 541.775 859.389 540.594Z" fill="#558154"/>
<path fill-rule="evenodd" clip-rule="evenodd" d="M427.444 292.832C428.658 295.07 430.711 296.734 433.151 297.459C435.592 298.183 438.22 297.908 440.458 296.695C442.696 295.481 444.36 293.429 445.085 290.988C445.809 288.547 445.534 285.919 444.321 283.681C433.279 250.121 412.554 220.579 384.755 198.776C375.447 191.161 368.279 195.633 367.545 200.387C364.684 210.429 387.702 248.318 398.242 260.317C408.783 272.316 418.338 281.242 427.444 292.832Z" fill="#558154"/>
<path fill-rule="evenodd" clip-rule="evenodd" d="M884.815 348.997C886.041 344.693 883.331 336.786 870.957 338.844C835.917 342.77 802.864 357.128 776.08 380.059C773.869 381.322 772.25 383.411 771.58 385.866C770.909 388.322 771.242 390.944 772.504 393.155C773.766 395.366 775.855 396.984 778.311 397.655C780.767 398.325 783.389 397.993 785.6 396.731C792.277 393.98 878.93 369.655 884.815 348.997Z" fill="#558154"/>
</g>
</g>
</g>
<defs>
<clipPath id="clip0_1738_4959">
<rect width="1024" height="1024" fill="white"/>
</clipPath>
<clipPath id="clip1_1738_4959">
<rect width="716" height="716" fill="white" transform="translate(199 63)"/>
</clipPath>
</defs>
</svg>
