<svg width="24" height="24" viewBox="0 0 24 24" fill="none" xmlns="http://www.w3.org/2000/svg">
<g clip-path="url(#clip0_6015_1648)">
<g clip-path="url(#clip1_6015_1648)">
<path fill-rule="evenodd" clip-rule="evenodd" d="M23.4202 17.3897C23.4202 17.3097 23.3102 14.9897 23.2502 14.9097C22.9304 14.5723 22.575 14.2705 22.1902 14.0097C22.1613 13.9841 22.1276 13.9644 22.0912 13.9518C22.0547 13.9392 22.016 13.9339 21.9775 13.9362C21.939 13.9385 21.9013 13.9484 21.8666 13.9653C21.8318 13.9822 21.8008 14.0058 21.7752 14.0347C21.7496 14.0636 21.7299 14.0972 21.7173 14.1337C21.7047 14.1702 21.6994 14.2088 21.7017 14.2473C21.7041 14.2859 21.7139 14.3236 21.7308 14.3583C21.7477 14.393 21.7713 14.4241 21.8002 14.4497C21.9202 14.5597 22.1502 15.0297 22.3902 15.2497C21.9902 15.4297 20.0102 16.0197 19.6202 16.1197C18.9714 15.5223 18.2407 15.0206 17.4502 14.6297C18.4992 14.381 19.526 14.0466 20.5202 13.6297C24.5202 11.5497 20.5202 7.17967 17.7402 11.8697C16.6602 10.1597 14.0102 8.69967 12.5202 10.1597C11.0302 11.6197 12.9902 13.1597 14.6902 14.0997C15.1307 14.3105 15.5851 14.4909 16.0502 14.6397C15.0002 15.0397 14.2002 14.9097 13.4002 15.5297C11.4002 14.3097 11.4002 14.1497 11.2402 14.0997C11.5098 13.9193 11.8122 13.7936 12.1302 13.7297C12.2204 13.7297 12.3068 13.6938 12.3706 13.6301C12.4344 13.5663 12.4702 13.4798 12.4702 13.3897C12.4702 13.2995 12.4344 13.213 12.3706 13.1493C12.3068 13.0855 12.2204 13.0497 12.1302 13.0497C11.4302 13.0497 10.1802 13.2697 10.1302 13.9897C9.97515 15.1931 9.91496 16.4068 9.95019 17.6197C9.91556 18.5399 10.0512 19.4587 10.3502 20.3297C11.7164 21.4954 13.182 22.5394 14.7302 23.4497C14.97 23.6625 15.2541 23.8195 15.5618 23.9094C15.8696 23.9993 16.1935 24.0199 16.5102 23.9697C17.4111 23.7815 18.2995 23.5377 19.1702 23.2397C20.5439 22.858 21.8402 22.2386 23.0002 21.4097C23.2402 21.2497 23.9302 21.1197 23.8602 20.2997C23.6547 19.3395 23.5077 18.3677 23.4202 17.3897ZM18.6002 12.6397C20.0002 9.70967 21.8602 10.8697 21.1302 11.9997C20.3868 12.8954 19.3541 13.5037 18.2102 13.7197C18.3611 13.3676 18.4913 13.007 18.6002 12.6397ZM13.1802 10.8497C14.1802 9.94967 16.1802 11.3897 16.7902 12.4897C17.1302 13.0697 17.2202 13.8597 16.5702 14.0797C16.0559 13.9016 15.5546 13.6877 15.0702 13.4397C14.1802 12.8997 12.4002 11.5497 13.1802 10.8497ZM16.8102 15.0797C17.1002 15.3897 17.8902 15.9097 18.3902 16.3497C15.8002 16.7297 16.3902 17.2597 14.3902 16.1297C15.0002 15.7897 16.5102 15.3197 16.8102 15.0797ZM11.1202 19.0797C10.9556 17.5954 10.8755 16.103 10.8802 14.6097C11.5356 15.2038 12.2234 15.7613 12.9402 16.2797C12.6978 17.7958 12.5475 19.3253 12.4902 20.8597C10.7202 19.3297 11.2002 19.7097 11.1202 19.0597V19.0797ZM13.1202 21.3497C13.2802 21.1097 13.9802 17.1097 13.9902 16.9897C14.3318 17.2219 14.6856 17.4355 15.0502 17.6297C15.0704 19.0386 15.0103 20.4476 14.8702 21.8497C14.8452 22.1525 14.8452 22.4568 14.8702 22.7597C14.3702 22.3697 13.7202 21.8597 13.0802 21.3297L13.1202 21.3497ZM16.2502 22.9497C16.0502 22.9997 15.9302 22.9497 15.8902 22.8597C15.6702 22.3097 15.8902 20.2197 15.7302 17.8597C16.4754 17.9081 17.2229 17.8095 17.9302 17.5697C18.3802 17.5097 18.8102 17.4497 19.2402 17.3497C19.8537 18.6686 20.2391 20.0819 20.3802 21.5297C19.0254 22.0954 17.6319 22.5633 16.2102 22.9297L16.2502 22.9497ZM21.0002 21.2897C21.1704 19.8224 20.928 18.3367 20.3002 16.9997L22.3702 16.1297C23.0302 15.9097 22.4402 16.1297 22.7002 17.4097L23.0002 20.1597C22.372 20.6008 21.7022 20.9792 21.0002 21.2897Z" fill="black"/>
<path fill-rule="evenodd" clip-rule="evenodd" d="M9.37016 5.3399C10.2602 5.3399 11.1702 5.2499 12.0602 5.2799C14.8202 5.3499 14.2202 5.5399 14.3102 5.8199L14.7002 7.73989C14.7189 7.8106 14.7628 7.87204 14.8236 7.91265C14.8844 7.95327 14.958 7.97026 15.0305 7.96043C15.103 7.9506 15.1694 7.91463 15.2172 7.85929C15.265 7.80394 15.2909 7.73303 15.2902 7.65989C15.0102 5.0899 15.0702 4.88989 14.5402 4.65989C13.913 4.44976 13.2665 4.30237 12.6102 4.21989C12.6151 3.18306 12.2619 2.17632 11.6102 1.3699C11.3546 1.09488 11.0452 0.875519 10.701 0.725516C10.3569 0.575513 9.98555 0.498093 9.61016 0.498093C9.23476 0.498093 8.8634 0.575513 8.51928 0.725516C8.17516 0.875519 7.86567 1.09488 7.61016 1.3699C6.96766 2.27541 6.49966 3.2928 6.23016 4.36989C6.23016 4.50989 6.53016 4.4399 4.13016 4.6299C4.37607 3.65791 4.71081 2.71059 5.13016 1.7999C5.31934 1.43298 5.62231 1.13723 5.99368 0.956957C6.36505 0.776679 6.78484 0.721574 7.19016 0.799895C7.23415 0.808431 7.27939 0.808218 7.3233 0.799269C7.36721 0.79032 7.40893 0.77281 7.44608 0.747738C7.48322 0.722666 7.51506 0.690524 7.53978 0.653146C7.5645 0.615769 7.58162 0.573888 7.59016 0.529895C7.59869 0.485902 7.59848 0.440659 7.58953 0.396748C7.58058 0.352838 7.56307 0.31112 7.538 0.273976C7.51293 0.236833 7.48078 0.204991 7.44341 0.18027C7.40603 0.155548 7.36415 0.138431 7.32016 0.129895C6.82013 -0.0198537 6.29032 -0.0404957 5.78016 0.0698951C5.21068 0.219868 4.69936 0.537408 4.31245 0.981371C3.92554 1.42533 3.68088 1.97526 3.61016 2.5599C3.49146 3.27119 3.41798 3.9893 3.39016 4.7099C2.66016 4.7099 2.57016 4.7099 2.49016 4.86989C2.41016 5.02989 2.28016 4.9999 2.08016 6.11989C1.32016 9.23989 1.08016 9.69989 0.770156 11.0499C0.42661 12.4869 0.222333 13.9537 0.160156 15.4299C0.350156 17.2399 2.33016 16.8899 3.88016 16.9199L7.58016 17.0999C7.66303 17.0994 7.74289 17.0687 7.80472 17.0136C7.86655 16.9584 7.9061 16.8825 7.91592 16.8002C7.92575 16.7179 7.90518 16.6349 7.85808 16.5667C7.81098 16.4985 7.7406 16.4498 7.66016 16.4299L5.00016 16.1699C5.01796 15.446 4.99793 14.7217 4.94016 13.9999C4.87596 11.3215 4.64552 8.64971 4.25016 5.9999C4.25016 5.7499 4.25016 5.61989 4.17016 5.4399C6.35016 5.4399 7.00016 5.4599 9.37016 5.3399ZM8.15016 2.3899C9.26016 1.0699 11.4102 1.38989 11.8802 4.17989C10.2293 4.11665 8.57616 4.20031 6.94016 4.42989C7.26878 3.70827 7.67448 3.0243 8.15016 2.3899ZM4.32016 16.0899C3.41016 15.9999 2.77016 15.9999 2.10016 15.9299C1.18016 15.7799 1.22016 15.5899 1.26016 15.0099C1.30016 14.4299 1.83016 11.0799 2.41016 8.5199C2.94016 4.9299 2.79016 5.5199 3.18016 5.42989H3.50016C3.48925 5.64889 3.51287 5.86824 3.57016 6.0799C3.57016 8.0799 3.57016 10.0799 3.65016 11.3099C3.71016 11.9999 4.20016 15.6899 4.32016 16.0899Z" fill="black"/>
</g>
</g>
<defs>
<clipPath id="clip0_6015_1648">
<rect width="24" height="24" fill="white"/>
</clipPath>
<clipPath id="clip1_6015_1648">
<rect width="24" height="24" fill="white"/>
</clipPath>
</defs>
</svg>
