<svg width="24" height="24" viewBox="0 0 24 24" fill="none" xmlns="http://www.w3.org/2000/svg">
<path fill-rule="evenodd" clip-rule="evenodd" d="M4.87868 7.87868C5.44129 7.31607 6.20435 7 7 7H8C8.55228 7 9 7.44772 9 8C9 8.55228 8.55228 9 8 9H7C6.73478 9 6.48043 9.10536 6.29289 9.29289C6.10536 9.48043 6 9.73478 6 10V18C6 18.2652 6.10536 18.5196 6.29289 18.7071C6.48043 18.8946 6.73478 19 7 19H17C17.2652 19 17.5196 18.8946 17.7071 18.7071C17.8946 18.5196 18 18.2652 18 18V10C18 9.73478 17.8946 9.48043 17.7071 9.29289C17.5196 9.10536 17.2652 9 17 9H16C15.4477 9 15 8.55228 15 8C15 7.44772 15.4477 7 16 7H17C17.7957 7 18.5587 7.31607 19.1213 7.87868C19.6839 8.44129 20 9.20435 20 10V18C20 18.7957 19.6839 19.5587 19.1213 20.1213C18.5587 20.6839 17.7957 21 17 21H7C6.20435 21 5.44129 20.6839 4.87868 20.1213C4.31607 19.5587 4 18.7956 4 18V10C4 9.20435 4.31607 8.44129 4.87868 7.87868Z" fill="#3F135C"/>
<path fill-rule="evenodd" clip-rule="evenodd" d="M12 1C12.5523 1 13 1.44772 13 2V13C13 13.5523 12.5523 14 12 14C11.4477 14 11 13.5523 11 13V2C11 1.44772 11.4477 1 12 1Z" fill="#3F135C"/>
<path fill-rule="evenodd" clip-rule="evenodd" d="M11.2929 1.29289C11.6834 0.902369 12.3166 0.902369 12.7071 1.29289L15.7071 4.29289C16.0976 4.68342 16.0976 5.31658 15.7071 5.70711C15.3166 6.09763 14.6834 6.09763 14.2929 5.70711L12 3.41421L9.70711 5.70711C9.31658 6.09763 8.68342 6.09763 8.29289 5.70711C7.90237 5.31658 7.90237 4.68342 8.29289 4.29289L11.2929 1.29289Z" fill="#3F135C"/>
</svg>
