<svg width="24" height="24" viewBox="0 0 24 24" fill="none" xmlns="http://www.w3.org/2000/svg">
<g clip-path="url(#clip0_6015_9642)">
<path d="M12.3802 10.8399C12.4637 10.8743 12.5575 10.8742 12.641 10.8395C12.7245 10.8048 12.7907 10.7384 12.8252 10.6549C12.8597 10.5713 12.8595 10.4775 12.8248 10.3941C12.7901 10.3106 12.7237 10.2443 12.6402 10.2099C12.2985 9.95794 11.9029 9.78887 11.4847 9.71598C11.0664 9.64309 10.637 9.66838 10.2302 9.78987C10.1519 9.77395 10.0706 9.78977 10.004 9.83384C9.93744 9.87792 9.89109 9.94663 9.87518 10.0249C9.85927 10.1031 9.87509 10.1845 9.91916 10.251C9.96323 10.3176 10.0319 10.364 10.1102 10.3799C10.7912 10.7902 11.5931 10.9527 12.3802 10.8399Z" fill="black"/>
<path d="M13 6.05988C12.6403 5.80726 12.2314 5.63346 11.8 5.54988C11.45 5.48988 10.3 5.54988 10.24 5.87988C10.2327 5.91862 10.2332 5.9584 10.2413 5.99696C10.2495 6.03552 10.2652 6.0721 10.2874 6.1046C10.3097 6.1371 10.3382 6.1649 10.3712 6.18639C10.4043 6.20789 10.4412 6.22266 10.48 6.22988C11.41 6.69988 13.01 6.93988 13.19 6.49988C13.2076 6.45865 13.2167 6.41426 13.2167 6.3694C13.2166 6.32455 13.2074 6.28017 13.1896 6.239C13.1718 6.19782 13.1459 6.16069 13.1132 6.1299C13.0806 6.0991 13.0421 6.07527 13 6.05988Z" fill="black"/>
<path d="M8.45996 19.7402C7.82148 19.2769 7.0804 18.975 6.29996 18.8602C4.62996 18.7302 4.90996 18.7502 4.75996 18.8602C4.60996 18.9702 4.60996 19.1202 4.75996 19.3202C5.40347 19.6889 6.09272 19.9714 6.80996 20.1602C7.18996 20.2402 6.90996 20.1602 8.44996 20.4202C8.54013 20.4215 8.62714 20.387 8.69184 20.3241C8.75654 20.2613 8.79363 20.1753 8.79496 20.0852C8.79629 19.995 8.76174 19.908 8.69891 19.8433C8.63609 19.7786 8.55013 19.7415 8.45996 19.7402Z" fill="black"/>
<path d="M4.36999 14.0002C4.45999 12.9002 4.60999 11.3702 4.61999 10.9402C5.85999 11.0802 11.22 12.6402 11.34 12.6602C11.4213 13.5386 11.3776 14.4241 11.21 15.2902C11.21 16.4202 11.7 16.2902 12 15.4402C12 15.2502 12.07 14.5002 12.11 14.2502C12.595 14.3439 13.0864 14.4007 13.58 14.4202C13.65 14.6502 13.72 15.0202 13.76 15.1702C13.94 15.7802 14.69 15.3402 14.62 14.7202C14.6671 14.2736 14.5982 13.8223 14.42 13.4102C14.3316 13.3189 14.2156 13.2591 14.09 13.2402C13.4681 13.2844 12.85 13.3713 12.24 13.5002C12.24 13.1002 12.43 12.3102 12.12 11.9702C11.58 11.4102 6.32999 10.0702 4.78999 9.86015C4.24999 9.79015 3.90999 9.92015 3.78999 10.4602C3.69051 11.5906 3.65045 12.7255 3.66999 13.8602C3.60999 14.8602 4.05999 14.7502 4.36999 14.0002Z" fill="black"/>
<path d="M21.42 1.80002C20.42 1.65002 11.58 -0.199979 11.15 0.0300209C10.1341 0.582648 9.18744 1.25402 8.32997 2.03002C6.59997 3.93002 6.61997 3.93002 6.57997 4.00002C6.53997 4.07002 6.57997 4.00002 6.33997 6.00002C6.2606 7.0343 6.32794 8.0746 6.53997 9.09002C6.53997 9.18019 6.57579 9.26667 6.63955 9.33044C6.70331 9.3942 6.78979 9.43002 6.87997 9.43002C6.97014 9.43002 7.05662 9.3942 7.12038 9.33044C7.18414 9.26667 7.21997 9.18019 7.21997 9.09002C7.21997 9.09002 7.34997 7.74002 7.35997 7.69002C7.36997 7.64002 7.85997 7.83002 7.98997 7.87002C9.25473 8.3692 10.5639 8.74755 11.9 9.00002C13.1986 9.20891 14.5069 9.35243 15.82 9.43002C16.04 9.43002 16.2 9.43002 16.32 9.27002L16.38 14.27C16.21 14.18 15.94 14.6 15.83 14.69C13.41 16.88 13.14 17.81 11.72 17.12C11.72 16.89 8.34997 16.17 8.24997 16.12L7.99997 16C5.68997 15.5 3.27997 15.31 2.63997 14.7C2.42997 14.51 1.92997 14.53 1.88997 15.89L1.45997 20.31C1.45997 20.59 1.13997 21.19 1.51997 21.59C2.25501 22.1398 3.10148 22.5221 3.99997 22.71C6.80997 23.8 6.47997 23.57 11 23.98C11.6444 24.0223 12.2906 23.9339 12.9 23.72C14.56 22.72 15.99 21.91 18 20.42C18.75 19.86 21.72 17.59 22.39 16.95C22.4622 16.8679 22.5106 16.7676 22.53 16.66C22.53 16.56 22.71 7.41002 22.71 5.23002C22.7 1.78002 22.72 2.00002 21.42 1.80002ZM11.42 0.800021C12.14 0.890021 21.12 2.89002 21.47 3.00002C20.6754 3.30578 19.9091 3.68054 19.18 4.12002C18.4969 4.60447 17.8455 5.13222 17.23 5.70002C15.92 3.97002 11.78 3.89002 10.15 3.70002C9.33482 3.62949 8.51511 3.62949 7.69997 3.70002C8.73186 2.49666 9.99305 1.51082 11.41 0.800021H11.42ZM16.32 8.80002C16.2756 8.76403 16.2243 8.73749 16.1692 8.72202C16.1142 8.70654 16.0566 8.70246 16 8.71002C15.91 8.71002 15.09 8.54002 14.32 8.35002C12.2947 7.80939 10.2325 7.41833 8.14997 7.18002C8.03997 7.18002 7.67997 7.02002 7.58997 7.08002C7.53706 7.07046 7.48287 7.07046 7.42997 7.08002C7.51982 6.19124 7.41401 5.29356 7.11997 4.45002H9.20997C10.8336 4.62694 12.446 4.89402 14.04 5.25002C14.8559 5.4514 15.6174 5.83041 16.27 6.36002C16.67 6.66002 16.3 7.92002 16.31 8.82002L16.32 8.80002ZM11.42 23.07C10.27 22.72 8.53997 22.69 7.14997 22.45C6.18505 22.2837 5.24453 21.9981 4.34997 21.6C3.61504 21.4811 2.90315 21.2483 2.23997 20.91C2.36997 19.86 2.31997 22.27 2.50997 15.91C2.50997 15.05 2.28997 15.42 3.15997 15.73C3.86997 15.98 4.74997 16.06 5.34997 16.3C7.14816 16.937 8.98112 17.4712 10.84 17.9C11.12 17.97 11.56 18.22 12 18.36C11.9093 19.9481 11.7122 21.5283 11.41 23.09L11.42 23.07ZM19.6 18C17.0357 19.5638 14.6072 21.3401 12.34 23.31C12.58 22.62 12.54 22.11 12.67 18.46C13.52 18.46 13.67 17.97 16.3 15.16L16.39 15.09C16.55 19.09 16.21 19.76 16.74 19.77C17.09 19.77 17.12 20.06 17.39 11.91C17.44 10.4 17.46 9.13002 17.46 8.64002C17.5587 7.89432 17.5855 7.14085 17.54 6.39002C18.9698 5.67375 20.3121 4.79458 21.54 3.77002C21.54 4.89002 21.65 15.77 21.66 16.07C21.67 16.37 22.28 16 19.6 18Z" fill="black"/>
</g>
<defs>
<clipPath id="clip0_6015_9642">
<rect width="24" height="24" fill="white"/>
</clipPath>
</defs>
</svg>
