<svg width="24" height="24" viewBox="0 0 24 24" fill="none" xmlns="http://www.w3.org/2000/svg">
<path fill-rule="evenodd" clip-rule="evenodd" d="M11.0597 1.03371C16.3941 0.588839 20.8877 4.60236 21.0001 9.77734L21.0003 9.799C21.0003 11.6079 20.4337 13.2985 19.4294 14.7503L19.4194 14.7645L14.3437 21.8361C14.3337 21.8501 14.3233 21.8639 14.3125 21.8774C13.1458 23.3369 10.8512 23.4267 9.73013 21.8317L4.65285 14.7578C3.32936 12.8814 2.63388 10.5124 3.19631 8.0052C3.88981 4.24587 7.16773 1.47839 11.0292 1.03673C11.0393 1.03557 11.0495 1.03457 11.0597 1.03371ZM11.2412 3.02553C8.1506 3.3853 5.66863 5.58548 5.16017 8.3842C5.15757 8.39847 5.15466 8.41273 5.15144 8.42687C4.72768 10.2929 5.22521 12.0977 6.28491 13.6017L11.3652 20.6798C11.6359 21.0668 12.3111 21.1575 12.7364 20.6456L17.7893 13.6056C18.5713 12.4725 18.9981 11.1813 19.0003 9.80987C18.9077 5.83162 15.4502 2.68282 11.2412 3.02553Z" fill="#3F135C"/>
<path fill-rule="evenodd" clip-rule="evenodd" d="M12.0003 7.89965C10.951 7.89965 10.1003 8.75032 10.1003 9.79965C10.1003 10.849 10.951 11.6997 12.0003 11.6997C13.0497 11.6997 13.9003 10.849 13.9003 9.79965C13.9003 8.75032 13.0497 7.89965 12.0003 7.89965ZM8.10034 9.79965C8.10034 7.64572 9.84641 5.89966 12.0003 5.89966C14.1543 5.89966 15.9003 7.64572 15.9003 9.79965C15.9003 11.9536 14.1543 13.6997 12.0003 13.6997C9.84641 13.6997 8.10034 11.9536 8.10034 9.79965Z" fill="#3F135C"/>
<path fill-rule="evenodd" clip-rule="evenodd" d="M12.0003 7.89965C10.951 7.89965 10.1003 8.75032 10.1003 9.79965C10.1003 10.849 10.951 11.6997 12.0003 11.6997C13.0497 11.6997 13.9003 10.849 13.9003 9.79965C13.9003 8.75032 13.0497 7.89965 12.0003 7.89965ZM8.10034 9.79965C8.10034 7.64572 9.84641 5.89966 12.0003 5.89966C14.1543 5.89966 15.9003 7.64572 15.9003 9.79965C15.9003 11.9536 14.1543 13.6997 12.0003 13.6997C9.84641 13.6997 8.10034 11.9536 8.10034 9.79965Z" fill="#3F135C"/>
<path fill-rule="evenodd" clip-rule="evenodd" d="M12.0003 7.89965C10.951 7.89965 10.1003 8.75032 10.1003 9.79965C10.1003 10.849 10.951 11.6997 12.0003 11.6997C13.0497 11.6997 13.9003 10.849 13.9003 9.79965C13.9003 8.75032 13.0497 7.89965 12.0003 7.89965ZM8.10034 9.79965C8.10034 7.64572 9.84641 5.89966 12.0003 5.89966C14.1543 5.89966 15.9003 7.64572 15.9003 9.79965C15.9003 11.9536 14.1543 13.6997 12.0003 13.6997C9.84641 13.6997 8.10034 11.9536 8.10034 9.79965Z" fill="#3F135C"/>
</svg>
