<svg width="707" height="708" viewBox="0 0 707 708" fill="none" xmlns="http://www.w3.org/2000/svg">
<g clip-path="url(#clip0_1738_4720)">
<path d="M107.64 598.492C104.785 601.347 100.985 602.911 96.9299 602.911C92.8751 602.911 89.0931 601.347 86.2384 598.492L53.4186 565.654C50.5639 562.818 49.0002 559.036 49.0002 554.981C48.982 550.945 50.5639 547.144 53.4367 544.271C56.2733 541.417 60.0553 539.853 64.11 539.853C68.1648 539.853 71.965 541.417 74.8196 544.271L107.658 577.109C110.512 579.982 112.094 583.783 112.076 587.819C112.058 591.856 110.494 595.638 107.64 598.492Z" fill="#3F135C"/>
<path d="M119.223 572.69C118.277 571.29 117.204 569.963 115.986 568.744L83.1482 535.906C81.9299 534.67 80.5844 533.597 79.1843 532.634C118.859 491.195 273.794 298.494 289.831 174.924L476.968 362.061C353.526 378.08 161.098 532.688 119.223 572.69Z" fill="#3F135C"/>
<path d="M537.971 370.644C528.098 380.462 512.097 380.499 502.224 370.644L281.268 149.687C271.431 139.832 271.431 123.795 281.268 113.94C286.195 109.012 292.668 106.557 299.141 106.557C305.596 106.557 312.069 109.03 316.997 113.94L537.953 334.896C547.808 344.751 547.808 360.789 537.971 370.644Z" fill="#3F135C"/>
<path d="M434.257 78.7036C433.882 82.4645 430.445 85.0558 426.918 84.4897C423.26 83.9384 420.741 80.5041 421.248 76.7285L426.484 35.7853C426.99 32.0097 430.295 29.4331 433.954 29.9845C437.612 30.5358 440.131 33.97 439.624 37.7456L434.257 78.7036Z" fill="#3F135C"/>
<path fill-rule="evenodd" clip-rule="evenodd" d="M417.979 34.6449C419.085 26.3934 426.564 20.1935 435.232 21.4998C443.713 22.7779 449.224 30.6568 448.131 38.8714C448.13 38.8764 448.129 38.8814 448.129 38.8863L442.778 79.7132C441.842 88.2156 434.013 94.2951 425.599 92.9685C417.146 91.6726 411.656 83.8149 412.739 75.619L417.975 34.6709L417.979 34.6449Z" fill="#3F135C"/>
<path d="M607.094 253.401C603.475 253.945 600.063 251.485 599.521 247.888C598.963 244.158 601.443 240.762 605.196 240.203L632.008 236.229C635.761 235.67 639.174 238.13 639.731 241.861C640.273 245.458 637.659 248.869 634.04 249.412L607.094 253.401Z" fill="#3F135C"/>
<path fill-rule="evenodd" clip-rule="evenodd" d="M648.218 240.593C646.939 232.037 639.043 226.51 630.75 227.741C630.749 227.742 630.748 227.742 630.747 227.742C630.746 227.742 630.745 227.742 630.744 227.742L603.932 231.716C595.444 232.98 589.784 240.784 591.035 249.156L591.036 249.167C592.304 257.575 600.19 263.109 608.358 261.888C608.362 261.888 608.366 261.887 608.37 261.886L635.297 257.9L635.316 257.898C643.421 256.68 649.488 249.068 648.218 240.593ZM631.245 243.128L631.245 243.133ZM631.246 243.136C631.245 243.133 631.245 243.131 631.245 243.128Z" fill="#3F135C"/>
<path d="M501.639 133.201C499.808 136.401 495.689 137.546 492.471 135.732C489.252 133.919 487.97 129.846 489.801 126.646L533.778 48.8993C535.609 45.6997 539.727 44.5548 542.946 46.3683C546.164 48.1819 547.446 52.2548 545.615 55.4542L501.639 133.201Z" fill="#3F135C"/>
<path fill-rule="evenodd" clip-rule="evenodd" d="M526.33 44.6393C530.496 37.3598 539.816 34.758 547.157 38.8948C554.191 42.8582 557.433 52.0509 553.074 59.6957L509.096 137.446L509.085 137.465C504.919 144.745 495.6 147.347 488.258 143.21C481.224 139.246 477.982 130.053 482.341 122.409L526.319 44.658L526.33 44.6393Z" fill="#3F135C"/>
<path d="M558.036 181.687C555.187 183.93 550.95 183.448 548.718 180.405C546.368 177.514 546.96 173.192 549.81 170.949L613.536 119.976C616.37 117.597 620.622 118.216 622.839 121.122C625.189 124.014 624.73 128.32 621.763 130.714L558.036 181.687Z" fill="#3F135C"/>
<path fill-rule="evenodd" clip-rule="evenodd" d="M629.58 115.815C624.584 109.384 614.894 107.726 608.113 113.328L544.471 164.234C538.075 169.296 536.61 178.925 541.926 185.653C547.12 192.536 556.812 193.572 563.344 188.432L563.37 188.411L627.136 137.406L627.149 137.395C633.717 132.098 634.885 122.455 629.58 115.815Z" fill="#3F135C"/>
<path d="M249.034 694.688C246.924 695.974 244.439 696.356 242.027 695.771C239.615 695.186 237.591 693.711 236.305 691.601L221.521 667.336C220.232 665.237 219.847 662.762 220.432 660.35C221.004 657.947 222.493 655.915 224.616 654.62C226.714 653.332 229.189 652.947 231.601 653.532C234.013 654.117 236.048 655.595 237.334 657.704L252.129 681.972C253.413 684.093 253.805 686.581 253.212 688.979C252.619 691.378 251.144 693.402 249.034 694.688Z" fill="#3F135C"/>
<path d="M259.644 681.013C259.284 680.044 258.837 679.1 258.288 678.2L243.493 653.932C242.947 653.021 242.301 652.189 241.608 651.413C271.182 632.489 391.128 540.22 418.49 469.036L502.804 607.333C427.072 599.056 290.32 663.26 259.644 681.013Z" fill="#3F135C"/>
<path d="M537.851 621.235C530.562 625.651 521.04 623.365 516.589 616.08L417.037 452.79C412.607 445.509 414.92 435.971 422.192 431.528C425.834 429.308 430.038 428.781 433.888 429.715C437.727 430.646 441.221 433.05 443.444 436.681L542.996 599.971C547.436 607.254 545.123 616.793 537.851 621.235Z" fill="#3F135C"/>
<path d="M518.27 432.637C517.504 434.82 515.086 435.865 513.07 435.02C510.974 434.164 509.971 431.758 510.817 429.586L519.836 405.989C520.682 403.816 523.02 402.76 525.116 403.616C527.213 404.471 528.215 406.877 527.37 409.05L518.27 432.637Z" fill="#3F135C"/>
<path fill-rule="evenodd" clip-rule="evenodd" d="M514.942 404.083C516.79 399.335 522.132 396.726 527.1 398.753C531.96 400.736 534.101 406.217 532.266 410.946C532.265 410.948 532.264 410.951 532.263 410.954L523.192 434.466C521.409 439.388 515.876 441.875 511.062 439.872C506.221 437.882 504.089 432.416 505.915 427.698L514.936 404.098L514.942 404.083Z" fill="#3F135C"/>
<path d="M595.873 561.472C593.642 561.273 591.968 559.318 592.164 557.1C592.37 554.801 594.335 553.139 596.648 553.348L613.168 554.852C615.481 555.061 617.156 557.016 616.949 559.315C616.753 561.533 614.707 563.184 612.476 562.986L595.873 561.472Z" fill="#3F135C"/>
<path fill-rule="evenodd" clip-rule="evenodd" d="M622.179 559.785C622.653 554.511 618.754 550.085 613.643 549.621C613.643 549.621 613.642 549.621 613.642 549.621C613.641 549.621 613.64 549.621 613.64 549.621L597.12 548.117C591.888 547.645 587.397 551.47 586.933 556.63L586.932 556.637C586.473 561.821 590.366 566.25 595.4 566.702C595.402 566.702 595.405 566.702 595.407 566.702L611.998 568.215L612.01 568.216C617.006 568.661 621.713 565.009 622.179 559.785ZM611.718 558.845L611.718 558.847ZM611.718 558.849C611.718 558.848 611.718 558.846 611.718 558.845Z" fill="#3F135C"/>
<path d="M550.486 474.769C548.936 476.408 546.321 476.495 544.668 474.953C543.015 473.41 542.84 470.802 544.391 469.163L581.761 429.264C583.311 427.625 585.926 427.538 587.579 429.08C589.232 430.623 589.407 433.231 587.856 434.87L550.486 474.769Z" fill="#3F135C"/>
<path fill-rule="evenodd" clip-rule="evenodd" d="M577.946 425.656C581.474 421.927 587.392 421.724 591.162 425.243C594.774 428.615 595.377 434.55 591.682 438.469L554.31 478.371L554.301 478.38C550.773 482.109 544.855 482.312 541.085 478.793C537.473 475.421 536.87 469.486 540.566 465.567L577.937 425.666L577.946 425.656Z" fill="#3F135C"/>
<path d="M577.037 511.743C575.019 512.666 572.568 511.768 571.68 509.636C570.699 507.578 571.674 505.093 573.693 504.17L618.948 483.043C620.977 482.037 623.417 483.018 624.316 485.066C625.297 487.125 624.403 489.62 622.292 490.616L577.037 511.743Z" fill="#3F135C"/>
<path fill-rule="evenodd" clip-rule="evenodd" d="M629.092 482.881C627.048 478.336 621.523 475.952 616.682 478.306L571.487 499.405C566.952 501.493 564.692 507.009 566.884 511.777C568.98 516.62 574.596 518.635 579.222 516.519L579.24 516.511L624.524 495.371L624.533 495.366C629.204 493.163 631.289 487.596 629.092 482.881Z" fill="#3F135C"/>
</g>
<defs>
<clipPath id="clip0_1738_4720">
<rect width="706.808" height="706.808" fill="white" transform="translate(0 0.424316)"/>
</clipPath>
</defs>
</svg>
