<svg width="24" height="24" viewBox="0 0 24 24" fill="none" xmlns="http://www.w3.org/2000/svg">
<g clip-path="url(#clip0_6013_4108)">
<g clip-path="url(#clip1_6013_4108)">
<path fill-rule="evenodd" clip-rule="evenodd" d="M11.74 11C11.819 10.9816 11.8888 10.9356 11.9368 10.8702C11.9848 10.8049 12.0078 10.7245 12.0018 10.6436C11.9958 10.5628 11.961 10.4867 11.9039 10.4292C11.8467 10.3717 11.7709 10.3365 11.69 10.33C10.8897 10.3671 10.1004 10.1323 9.45048 9.66386C8.80051 9.19545 8.3281 8.52096 8.11005 7.75004C7.82051 6.77365 7.79979 5.73723 8.05005 4.75004C8.10194 4.79641 8.15898 4.83667 8.22005 4.87004C9.24284 5.28916 10.3629 5.41201 11.4523 5.22457C12.5416 5.03712 13.5562 4.54693 14.38 3.81004C14.5627 4.20217 14.7909 4.57139 15.06 4.91004C15.84 5.66004 17.14 5.80004 17.44 6.26004C17.4673 6.32275 17.5173 6.37278 17.58 6.40004C17.3836 7.46675 16.8553 8.44419 16.0706 9.19299C15.2859 9.94178 14.2848 10.4237 13.21 10.57C13.1445 10.5953 13.0898 10.6427 13.0556 10.7041C13.0214 10.7655 13.0099 10.8369 13.023 10.9059C13.0361 10.975 13.073 11.0372 13.1273 11.0818C13.1816 11.1264 13.2498 11.1506 13.32 11.15C21 9.82004 19.64 -0.33996 13.26 4.02899e-05C4.22005 0.69004 5.87005 11.48 11.74 11ZM17.64 5.32004C16.7223 4.6237 15.7639 3.98257 14.77 3.40004C15.2137 2.9321 15.6246 2.43427 16 1.91004C16.4959 2.32631 16.8982 2.84254 17.1808 3.42498C17.4634 4.00743 17.6199 4.64297 17.64 5.29004V5.32004ZM15.41 1.54004C14.47 2.62627 13.2589 3.44401 11.9 3.91004C11 4.19004 9.00005 4.54004 8.35005 4.10004C8.36314 4.0577 8.36314 4.01238 8.35005 3.97004C9.55005 1.39004 13.48 0.54004 15.41 1.54004Z" fill="black"/>
<path fill-rule="evenodd" clip-rule="evenodd" d="M11.1001 7.17995C11.1308 7.21109 11.1674 7.23582 11.2078 7.2527C11.2481 7.26958 11.2914 7.27827 11.3351 7.27827C11.3789 7.27827 11.4222 7.26958 11.4625 7.2527C11.5028 7.23582 11.5394 7.21109 11.5701 7.17995C11.8201 6.93995 11.4901 5.65995 10.3801 5.75995C9.10014 5.89995 9.10014 7.29995 9.67014 7.21995C10.2401 7.13995 10.2801 6.10995 11.1001 7.17995Z" fill="black"/>
<path fill-rule="evenodd" clip-rule="evenodd" d="M15.6503 7.32011C15.9003 7.08011 15.3103 5.50011 14.3103 5.64011C13.7303 5.80011 13.0703 6.77011 13.4403 6.99011C13.4778 7.0304 13.5254 7.05997 13.5781 7.07579C13.6308 7.0916 13.6868 7.0931 13.7403 7.08011C13.8119 7.07267 13.8782 7.03886 13.9262 6.98526C13.9743 6.93166 14.0007 6.8621 14.0003 6.79011C14.7703 6.20011 15.0903 7.84011 15.6503 7.32011Z" fill="black"/>
<path fill-rule="evenodd" clip-rule="evenodd" d="M13.78 9.00007C13.8259 8.93309 13.8464 8.85189 13.8376 8.77115C13.8289 8.69041 13.7915 8.61547 13.7323 8.55989C13.6731 8.50431 13.596 8.47175 13.5148 8.46811C13.4337 8.46448 13.3539 8.49 13.29 8.54007C13.09 8.68007 12.87 8.65007 12.16 8.65007C11.9529 8.7054 11.7327 8.6841 11.54 8.59007C11.4896 8.53039 11.4176 8.49318 11.3397 8.48662C11.2619 8.48005 11.1847 8.50467 11.125 8.55507C11.0653 8.60546 11.0281 8.67749 11.0216 8.75532C11.015 8.83314 11.0396 8.91039 11.09 8.97007C11.223 9.20849 11.4166 9.40754 11.6513 9.54709C11.886 9.68665 12.1533 9.76175 12.4263 9.76479C12.6993 9.76783 12.9683 9.69872 13.206 9.56443C13.4437 9.43015 13.6417 9.23546 13.78 9.00007Z" fill="black"/>
<path fill-rule="evenodd" clip-rule="evenodd" d="M19.6802 21.42C17.7778 21.6348 15.9059 22.0642 14.1002 22.7C13.5695 22.8751 13.0488 23.0787 12.5402 23.31C12.6002 23.13 13.2602 14.53 12.8002 14.08C12.7035 13.9658 12.5683 13.8911 12.4202 13.87C11.7102 13.8 10.9302 12.17 8.55015 11.39C7.48614 11.0887 6.386 10.934 5.28015 10.93C4.91015 10.93 4.17015 10.86 3.99015 11.21C3.97247 11.2583 3.96669 11.3102 3.97332 11.3612C3.97994 11.4123 3.99877 11.4609 4.02821 11.5031C4.05765 11.5453 4.09683 11.5798 4.14243 11.6036C4.18803 11.6275 4.2387 11.64 4.29015 11.64H5.19015C7.86015 12.29 9.46015 12.52 11.6802 14.34C12.3602 14.98 11.6002 16.98 11.8802 22.88C11.1521 22.5813 10.3992 22.347 9.63015 22.18C7.76015 21.5 6.16015 21.71 4.39015 21.5H3.12015C2.68015 21.5 2.56015 21.5 2.56015 20.8C2.56015 19.8 2.87015 19.26 2.40015 19.22C2.32272 19.2169 2.24691 19.2429 2.18768 19.2928C2.12845 19.3428 2.09009 19.4132 2.08015 19.49C1.96015 20.56 1.26015 21.9 2.74015 22.36C3.22946 22.4515 3.7236 22.515 4.22015 22.55C5.97015 22.89 7.74015 22.65 9.35015 23.07C10.2666 23.5234 11.2609 23.7983 12.2802 23.88C12.2802 23.99 12.6402 24.29 19.6502 22.23C19.8635 22.1283 20.0592 21.9933 20.2302 21.83C20.255 21.7578 20.2563 21.6796 20.2338 21.6066C20.2113 21.5336 20.1662 21.4697 20.105 21.424C20.0437 21.3784 19.9696 21.3534 19.8932 21.3527C19.8169 21.352 19.7422 21.3756 19.6802 21.42Z" fill="black"/>
<path fill-rule="evenodd" clip-rule="evenodd" d="M6.09018 15.38C6.00018 15 5.87018 14.31 5.34018 14C4.28726 13.6216 3.13046 13.6537 2.10018 14.09C1.76711 14.3837 1.5062 14.7502 1.3377 15.161C1.16921 15.5719 1.09766 16.0161 1.12861 16.459C1.15956 16.902 1.29218 17.3319 1.51617 17.7154C1.74016 18.0988 2.0495 18.4255 2.42018 18.67C2.77095 18.9754 3.19776 19.1803 3.65545 19.2631C4.11313 19.3458 4.58468 19.3033 5.02018 19.14C6.34018 18.43 6.51018 16.84 6.09018 15.38ZM4.47018 18.18C4.3694 18.2246 4.2604 18.2477 4.15018 18.2477C4.03995 18.2477 3.93095 18.2246 3.83018 18.18C1.67018 17.6 1.54018 15.61 2.57018 14.57C3.26018 14.97 4.35018 14.43 4.85018 14.77C5.00018 14.89 5.73018 17.48 4.47018 18.18Z" fill="black"/>
<path fill-rule="evenodd" clip-rule="evenodd" d="M3.00014 13.1401C3.14014 12.3001 3.27014 11.1401 2.71014 11.1401C2.62014 11.1401 2.50014 11.1401 2.44014 11.2301C2.24835 11.8318 2.14724 12.4587 2.14014 13.0901C2.19014 13.7901 2.94014 13.6601 3.00014 13.1401Z" fill="black"/>
<path fill-rule="evenodd" clip-rule="evenodd" d="M20.4 12.0002C20.5 12.4402 20.57 12.7802 20.63 13.0602C20.88 13.7402 21.54 13.5502 21.42 12.7802C21.2817 12.2625 21.1881 11.7339 21.14 11.2002C21.1201 10.8957 21.0046 10.6052 20.81 10.3702C20.6319 10.22 20.4025 10.1447 20.17 10.1602C19.0069 10.307 17.8676 10.6027 16.78 11.0402C16 11.3502 12.78 12.9502 12.71 13.5302C12.7056 13.6093 12.7298 13.6874 12.7783 13.7501C12.8267 13.8129 12.8961 13.8561 12.9738 13.8718C13.0515 13.8876 13.1322 13.8749 13.2013 13.8361C13.2704 13.7972 13.3231 13.7348 13.35 13.6602C15.2092 12.7262 17.1594 11.9857 19.17 11.4502C19.9 11.2502 20.07 10.6202 20.4 12.0002Z" fill="black"/>
<path fill-rule="evenodd" clip-rule="evenodd" d="M20.7401 19.7703C20.7115 20.4765 20.7994 21.1826 21.0001 21.8603C21.0901 21.9803 21.4501 22.0603 21.6101 21.5903C21.7657 21.041 21.8332 20.4706 21.8101 19.9003C21.7679 19.7992 21.6996 19.7112 21.6123 19.6451C21.5249 19.579 21.4217 19.5373 21.313 19.5241C21.2042 19.5108 21.094 19.5267 20.9933 19.5699C20.8927 19.6132 20.8054 19.6823 20.7401 19.7703Z" fill="black"/>
<path fill-rule="evenodd" clip-rule="evenodd" d="M22.8502 15.4601C22.7694 14.8473 22.467 14.2853 22.0002 13.8801C21.8902 13.7801 21.8102 13.8001 21.6002 13.7901C21.4542 13.7823 21.3081 13.804 21.1707 13.8538C21.0333 13.9036 20.9073 13.9806 20.8002 14.0801C20.3602 15.0801 19.2002 14.4201 18.3902 15.0801C18.185 15.2901 18.0313 15.5447 17.9411 15.824C17.8509 16.1034 17.8266 16.3998 17.8702 16.6901C18.0661 17.5439 18.5369 18.3098 19.2102 18.8701C19.4156 19.0757 19.6725 19.2222 19.954 19.2943C20.2355 19.3665 20.5312 19.3616 20.8102 19.2801C22.2602 18.8501 23.0002 16.7101 22.8502 15.4601ZM20.0002 18.0001C19.9402 17.9201 19.2202 16.7101 19.0002 16.2801C19.0002 15.9401 19.0002 15.7701 19.2102 15.6901C19.7902 15.4201 21.1102 15.4401 21.5402 14.2601C21.7485 14.4615 21.9088 14.7072 22.0092 14.979C22.1096 15.2508 22.1476 15.5417 22.1202 15.8301C22.0341 16.4198 21.819 16.9832 21.4902 17.4801C21.1302 18.0001 20.4202 18.4701 20.0002 18.0001Z" fill="black"/>
</g>
</g>
<defs>
<clipPath id="clip0_6013_4108">
<rect width="24" height="24" fill="white"/>
</clipPath>
<clipPath id="clip1_6013_4108">
<rect width="24" height="24" fill="white"/>
</clipPath>
</defs>
</svg>
