<svg width="24" height="24" viewBox="0 0 24 24" fill="none" xmlns="http://www.w3.org/2000/svg">
<g clip-path="url(#clip0_6015_9613)">
<g clip-path="url(#clip1_6015_9613)">
<path fill-rule="evenodd" clip-rule="evenodd" d="M22.7198 1.83022C21.5044 1.18307 20.2004 0.718099 18.8498 0.450222C15.9589 -0.0829544 13.0011 -0.147109 10.0898 0.260222C9.0898 0.380222 7.8698 0.500222 7.2798 1.33022C6.85657 2.15302 6.67293 3.07815 6.74979 4.00022C6.2998 8.51022 7.40979 14.6902 4.49979 16.1002C4.42916 16.1445 4.37725 16.2132 4.35393 16.2932C4.33061 16.3732 4.3375 16.459 4.37329 16.5343C4.40908 16.6096 4.47127 16.6691 4.54806 16.7015C4.62485 16.734 4.71088 16.7371 4.78979 16.7102C8.2998 15.1602 7.27979 8.71022 7.86979 4.10022C7.99979 3.41022 7.83979 2.49022 8.19979 2.00022C8.55979 1.51022 9.68979 1.43022 10.1998 1.36022C15.1998 0.590222 17.7798 0.920222 20.0498 1.44022C14.3698 3.25022 19.1498 11.7502 17.3398 17.8002C16.4898 20.6502 14.0498 21.6202 12.7298 21.1502C11.6124 20.5375 10.68 19.6362 10.0298 18.5402C9.35979 17.5402 9.34979 17.1202 8.86979 17.1402C8.00979 17.1402 1.5498 17.4302 0.709795 17.5502C0.409795 17.5502 0.169795 17.7502 0.129795 18.3402C0.0980876 19.6698 0.471246 20.9776 1.1998 22.0902C1.53819 22.5668 1.96795 22.9714 2.46408 23.2804C2.96022 23.5894 3.51283 23.7967 4.0898 23.8902C6.00603 24.0602 7.93356 24.0602 9.8498 23.8902C10.6753 23.7945 11.4914 23.6306 12.2898 23.4002C12.3276 23.3909 12.3631 23.3742 12.3942 23.3509C12.4253 23.3276 12.4515 23.2983 12.4711 23.2647C12.4907 23.2311 12.5033 23.194 12.5082 23.1554C12.5132 23.1168 12.5103 23.0777 12.4998 23.0402C12.3598 22.5402 11.9998 23.0402 9.78979 23.2502C7.9408 23.3854 6.08343 23.3553 4.23979 23.1602C2.62979 22.8202 1.4298 21.7702 1.0498 19.2302V18.5102C1.75979 18.3902 4.5998 18.3402 8.5598 18.2502C8.8711 18.8455 9.23594 19.4111 9.64979 19.9402C11.1998 21.7802 12.5998 23.0002 14.8998 22.1202C19.3798 20.4302 19.1198 15.1202 18.5598 10.3902C18.2198 7.44022 17.5598 4.44022 19.0498 3.04022C20.2998 1.85022 22.2198 1.59022 22.8298 3.50022C23.0722 4.44999 23.1466 5.43481 23.0498 6.41022C22.9698 6.79022 22.8598 6.87022 22.5298 6.95022C21.4134 7.17576 20.2848 7.33603 19.1498 7.43022C19.0596 7.43022 18.9731 7.46604 18.9094 7.52981C18.8456 7.59357 18.8098 7.68005 18.8098 7.77022C18.8098 7.8604 18.8456 7.94688 18.9094 8.01064C18.9731 8.0744 19.0596 8.11022 19.1498 8.11022C20.1294 8.05399 21.1046 7.9371 22.0698 7.76022C23.4298 7.59022 23.8398 7.31022 23.8498 5.56022C23.8598 4.28022 23.7098 2.65022 22.7198 1.83022Z" fill="black"/>
<path fill-rule="evenodd" clip-rule="evenodd" d="M7.99994 13.0501C7.91994 13.2001 7.99994 13.3601 8.16994 13.5401C8.90994 14.2601 10.3499 13.9501 11.0199 13.8301C11.4199 13.8301 11.4099 13.1601 11.0199 13.1601C8.32995 12.6501 8.20994 12.7001 7.99994 13.0501Z" fill="black"/>
<path fill-rule="evenodd" clip-rule="evenodd" d="M8.79993 10.36C9.53993 11.08 10.9799 10.77 11.6499 10.64C12.0399 10.64 12.0399 9.97 11.6499 9.97C8.93993 9.47 8.81993 9.51 8.64993 9.86C8.53993 10 8.60993 10.18 8.79993 10.36Z" fill="black"/>
<path fill-rule="evenodd" clip-rule="evenodd" d="M11.6498 7.00046C12.0398 7.00046 12.0398 6.33046 11.6498 6.33046C8.93976 5.82046 8.81976 5.87046 8.64976 6.21046C8.55976 6.37046 8.64976 6.53046 8.81976 6.71046C9.53976 7.41046 10.9998 7.10046 11.6498 7.00046Z" fill="black"/>
<path fill-rule="evenodd" clip-rule="evenodd" d="M15.8697 7.00046C16.2697 7.00046 16.2697 6.33046 15.8697 6.33046C13.1597 5.82046 13.0497 5.87046 12.8697 6.21046C12.7797 6.37046 12.8697 6.53046 13.0297 6.71046C13.7697 7.41046 15.2097 7.10046 15.8697 7.00046Z" fill="black"/>
<path fill-rule="evenodd" clip-rule="evenodd" d="M12.7897 13.9203C13.1287 14.1105 13.503 14.2296 13.8897 14.2703C14.4114 14.3575 14.917 14.5227 15.3897 14.7603C15.7797 15.0203 15.7397 15.4703 14.9097 15.5303C14.2068 15.58 13.5064 15.4049 12.9097 15.0303C12.8768 15.0014 12.8386 14.9792 12.7973 14.9651C12.7559 14.951 12.7121 14.9451 12.6685 14.9479C12.6248 14.9507 12.5821 14.9621 12.5429 14.9813C12.5036 15.0006 12.4686 15.0274 12.4397 15.0603C12.4108 15.0931 12.3886 15.1313 12.3745 15.1727C12.3604 15.2141 12.3545 15.2578 12.3573 15.3015C12.3601 15.3451 12.3715 15.3878 12.3907 15.427C12.41 15.4663 12.4368 15.5014 12.4697 15.5303C12.8847 15.8827 13.3787 16.1297 13.9097 16.2503C13.5197 16.8703 13.9797 17.7503 14.2897 17.7503C14.5997 17.7503 15.0097 16.9003 14.7697 16.4003C15.2502 16.4281 15.7279 16.3095 16.1397 16.0603C16.2908 15.9566 16.4178 15.8218 16.5123 15.6648C16.6068 15.5078 16.6665 15.3324 16.6873 15.1504C16.7082 14.9684 16.6897 14.784 16.6332 14.6097C16.5767 14.4355 16.4834 14.2754 16.3597 14.1403C15.7408 13.6158 14.9905 13.27 14.1897 13.1403C13.9608 13.1138 13.7338 13.0737 13.5097 13.0203C13.3497 12.9403 13.2697 12.5803 13.7897 12.3003C14.7897 11.7503 15.6097 12.0803 15.7897 12.5003C15.8224 12.5711 15.8815 12.6263 15.9543 12.6543C16.0271 12.6823 16.1079 12.6809 16.1797 12.6503C16.6997 12.4203 15.9397 11.3203 14.8097 11.2403C14.8703 10.9774 14.8626 10.7033 14.7874 10.4443C14.7121 10.1852 14.5717 9.94971 14.3797 9.76025C14.0997 9.76025 13.5597 10.5503 13.8597 11.3403C12.0497 11.8003 11.9997 13.3203 12.7897 13.9203Z" fill="black"/>
</g>
</g>
<defs>
<clipPath id="clip0_6015_9613">
<rect width="24" height="24" fill="white"/>
</clipPath>
<clipPath id="clip1_6015_9613">
<rect width="24" height="24" fill="white"/>
</clipPath>
</defs>
</svg>
